# xmcd
#
# Track frame offsets:
# 150
# 13958
# 32798
# 49754
# 64192
#
# Disc length: 1284 seconds
#
# Revision: 1
# Processed by: cddbd v1.5.2PL0 Copyright (c) Steve Scherf et al.
# Submitted via: CedeCatalogueitor 2.6.0.6 http://personales.ya.com/cdcatalogueitor
#
DISCID=40050205
DTITLE=La Prohibida - Flash (Demo)
DYEAR=1900
DGENRE=
TTITLE0=Flash
TTITLE1=En La Pared
TTITLE2=Amor Eléctrico
TTITLE3=C'est La Quate
TTITLE4=Flash (Pumpin Dolls Rmx)
EXTD=
EXTT0=
EXTT1=
EXTT2=
EXTT3=
EXTT4=
PLAYORDER=
